<?xml version="1.0" encoding="UTF-8"?>
<svg xmlns="http://www.w3.org/2000/svg" width="48" height="48" viewBox="0 0 48 48">
    <g opacity="0.1">
        <path fill-rule="evenodd" clip-rule="evenodd" d="M-0.646409 24.3536L24.3536 -0.646439L23.6465 -1.35355L-1.35352 23.6465L-0.646409 24.3536ZM-0.646409 36.3536L36.3536 -0.646439L35.6465 -1.35355L-1.35352 35.6464L-0.646409 36.3536ZM48.3536 -0.646439L-0.646409 48.3536L-1.35352 47.6465L47.6465 -1.35355L48.3536 -0.646439ZM10.3536 49.3536L49.3536 10.3536L48.6465 9.64645L9.64648 48.6464L10.3536 49.3536ZM49.3536 22.3535L22.3536 49.3535L21.6465 48.6464L48.6465 21.6464L49.3536 22.3535ZM34.3536 49.3536L49.3536 34.3536L48.6465 33.6465L33.6465 48.6464L34.3536 49.3536ZM49.3536 46.3536L46.3536 49.3536L45.6465 48.6465L48.6465 45.6465L49.3536 46.3536ZM-0.646409 12.3536L12.3536 -0.646439L11.6465 -1.35355L-1.35352 11.6465L-0.646409 12.3536ZM18.3536 -0.646439L-0.646409 18.3536L-1.35352 17.6465L17.6465 -1.35355L18.3536 -0.646439ZM-0.646409 6.35356L6.35359 -0.646439L5.64648 -1.35355L-1.35352 5.64645L-0.646409 6.35356ZM30.3536 -0.646439L-0.646409 30.3536L-1.35352 29.6465L29.6465 -1.35355L30.3536 -0.646439ZM-0.646409 42.3536L42.3536 -0.646439L41.6465 -1.35355L-1.35352 41.6465L-0.646409 42.3536ZM49.3536 4.35356L4.35359 49.3536L3.64648 48.6465L48.6465 3.64645L49.3536 4.35356ZM16.3536 49.3536L49.3536 16.3536L48.6465 15.6465L15.6465 48.6465L16.3536 49.3536ZM49.3536 28.3536L28.3536 49.3536L27.6465 48.6465L48.6465 27.6465L49.3536 28.3536ZM40.3536 49.3536L49.3536 40.3536L48.6465 39.6465L39.6465 48.6465L40.3536 49.3536Z" fill="currentColor" />
    </g>
    <g opacity="0.25">
        <path fill-rule="evenodd" clip-rule="evenodd" d="M24 19H23V23H19V24H23V28H24V24H28V23H24V19Z" fill="currentColor" />
    </g>
</svg>
