<svg xmlns="http://www.w3.org/2000/svg" viewBox="0 0 297.172 477.857" style="enable-background:new 0 0 297.172 477.857"
	 xml:space="preserve"><path style="fill:#1c1d1f" d="M128.209 477.857c-10.16-5.826-19.501-11.188-28.847-16.542-31.881-18.264-63.743-36.561-95.683-54.721-2.636-1.499-3.681-3.05-3.679-6.13.079-132.16.068-264.32.068-396.48V0c1.879 1.036 3.158 1.717 4.414 2.437 39.807 22.823 79.589 45.689 119.46 68.4 3.112 1.772 4.487 3.529 4.366 7.261-.313 9.656.031 19.332-.178 28.994-.074 3.414.772 5.213 4.217 6.59 53.365 21.326 106.643 42.867 160.008 64.192 3.684 1.472 4.824 3.213 4.816 7.184-.142 73.996-.124 147.992-.038 221.989.004 3.326-.885 5.305-3.811 7.191-17.174 11.065-34.175 22.399-51.863 34.057V277.132c-2.172-.814-3.152.648-4.306 1.348-34.693 21.047-69.33 42.186-104.082 63.135-3.248 1.958-4.508 3.933-4.507 7.798.01 40.83-.204 81.661-.355 122.492-.005 1.655 0 3.312 0 5.952z"/>
	<path style="fill:#f8f8f8" d="m128.541 115.77 163.728 66.632-163.728 99.842V115.77z"/></svg>
